<svg xmlns="http://www.w3.org/2000/svg" width="1123" height="794" stroke="#000" stroke-linecap="round" stroke-linejoin="round" fill="#fff" fill-rule="evenodd"><g transform="translate(-100.5 -100.5)"><svg width="200" height="200" viewBox="0 0 100 100" preserveAspectRatio="xMidYMid"><g stroke="none"><path transform="translate(30 130)" fill="#e15b64" d="M6.999-2.173c-.21-1.843-1.216-3.542-2.21-5.061L3.242-9.477c-.389-.479-.799-.955-.985-1.554-.13-.42.033-1.539-.704-1.467-.359.035-.418.337-.471.621-.072.38 0 .842 0 1.227V1.649v3.742c-2.884-1.873-8.377 1.23-8.197 4.705.091 1.754 1.807 2.481 3.362 2.395 1.974-.108 3.983-1.249 5.113-2.868 1-1.434.769-3.163.769-4.822v-7.195-5.159C3.898-5.099 6.601-2.885 6.131.484c-.093.665-.45 1.348-.466 2.01-.026 1.036.48.305.678-.145.647-1.474.91-2.924.656-4.522z"><animateTransform attributeName="transform" type="translate" keyTimes="0;0;0.2;0.4;1" values="30 130;30 130;30 50;30 130;30 130;" keySplines="0 0 1 1;0 0.5 0.5 1;0.5 0 1 0.5;0 0 1 1" calcMode="spline" dur="1.7857142857142856s" repeatCount="indefinite" begin="-0.8928571428571428s"/></path><path transform="translate(70 20)" fill="#f47e60" d="M6.999-2.173c-.21-1.843-1.216-3.542-2.21-5.061L3.242-9.477c-.389-.479-.799-.955-.985-1.554-.13-.42.033-1.539-.704-1.467-.359.035-.418.337-.471.621-.072.38 0 .842 0 1.227V1.649v3.742c-2.884-1.873-8.377 1.23-8.197 4.705.091 1.754 1.807 2.481 3.362 2.395 1.974-.108 3.983-1.249 5.113-2.868 1-1.434.769-3.163.769-4.822v-7.195-5.159C3.898-5.099 6.601-2.885 6.131.484c-.093.665-.45 1.348-.466 2.01-.026 1.036.48.305.678-.145.647-1.474.91-2.924.656-4.522z"><animateTransform attributeName="transform" type="translate" keyTimes="0;0.1;0.4;0.7;1" values="70 130;70 130;70 20;70 130;70 130;" keySplines="0 0 1 1;0 0.5 0.5 1;0.5 0 1 0.5;0 0 1 1" calcMode="spline" dur="1.7857142857142856s" repeatCount="indefinite" begin="-0.8928571428571428s"/></path><path transform="translate(40 60)" fill="#f8b26a" d="M10.988-11.314c-.201-.914-2.865.152-3.31.255L-.916-9.076l-2.875.663c-.481.124-.664.217-.719.77-.18 1.819 0 3.786 0 5.621v7.988c-2.146-1.278-5.411.577-6.269 2.683-1.074 2.636 1.925 3.462 3.907 2.736 1.954-.715 3.253-2.269 3.343-4.333V3.927-.987-3.006c0-.215-.116-.848 0-1.036.17-.277 1.196-.348 1.535-.427l4.274-.986 7.737-1.786v9.853c-1.64-.977-3.949-.013-5.2 1.179-.958.913-1.87 2.579-.84 3.778 1.198 1.393 3.567.71 4.866-.135 1.321-.856 2.093-2.087 2.157-3.646.148-3.605 0-7.245 0-10.853v-1.244c0-.938.189-2.087-.012-3.005z"><animateTransform attributeName="transform" type="translate" keyTimes="0;0.3;0.6;0.9;1" values="40 130;40 130;40 60;40 130;40 130;" keySplines="0 0 1 1;0 0.5 0.5 1;0.5 0 1 0.5;0 0 1 1" calcMode="spline" dur="1.7857142857142856s" repeatCount="indefinite" begin="-0.8928571428571428s"/></path><path transform="translate(60 130)" fill="#e15b64" d="M6.999-2.173c-.21-1.843-1.216-3.542-2.21-5.061L3.242-9.477c-.389-.479-.799-.955-.985-1.554-.13-.42.033-1.539-.704-1.467-.359.035-.418.337-.471.621-.072.38 0 .842 0 1.227V1.649v3.742c-2.884-1.873-8.377 1.23-8.197 4.705.091 1.754 1.807 2.481 3.362 2.395 1.974-.108 3.983-1.249 5.113-2.868 1-1.434.769-3.163.769-4.822v-7.195-5.159C3.898-5.099 6.601-2.885 6.131.484c-.093.665-.45 1.348-.466 2.01-.026 1.036.48.305.678-.145.647-1.474.91-2.924.656-4.522z"><animateTransform attributeName="transform" type="translate" keyTimes="0;0.5;0.75;1;1" values="60 130;60 130;60 70;60 130;60 130;" keySplines="0 0 1 1;0 0.5 0.5 1;0.5 0 1 0.5;0 0 1 1" calcMode="spline" dur="1.7857142857142856s" repeatCount="indefinite" begin="-0.8928571428571428s"/></path><path transform="translate(50 130)" fill="#abbd81" d="M10.988-11.314c-.201-.914-2.865.152-3.31.255L-.916-9.076l-2.875.663c-.481.124-.664.217-.719.77-.18 1.819 0 3.786 0 5.621v7.988c-2.146-1.278-5.411.577-6.269 2.683-1.074 2.636 1.925 3.462 3.907 2.736 1.954-.715 3.253-2.269 3.343-4.333V3.927-.987-3.006c0-.215-.116-.848 0-1.036.17-.277 1.196-.348 1.535-.427l4.274-.986 7.737-1.786v9.853c-1.64-.977-3.949-.013-5.2 1.179-.958.913-1.87 2.579-.84 3.778 1.198 1.393 3.567.71 4.866-.135 1.321-.856 2.093-2.087 2.157-3.646.148-3.605 0-7.245 0-10.853v-1.244c0-.938.189-2.087-.012-3.005z"><animateTransform attributeName="transform" type="translate" keyTimes="0;0;0.4;0.8;1" values="50 130;50 130;50 20;50 130;50 130;" keySplines="0 0 1 1;0 0.5 0.5 1;0.5 0 1 0.5;0 0 1 1" calcMode="spline" dur="1.7857142857142856s" repeatCount="indefinite" begin="0s"/></path></g></svg></g></svg>