<svg xmlns="http://www.w3.org/2000/svg" width="701" height="217" stroke="#000" stroke-linecap="round" stroke-linejoin="round" fill="#fff" fill-rule="evenodd"><defs><linearGradient id="A"><stop stop-color="#8f5e25" offset="0"/><stop stop-color="#fbf4a1" offset=".5"/><stop stop-color="#8f5e25" offset="1"/></linearGradient></defs><g transform="translate(.5 .5)"><svg width="700" height="215.8705" viewBox="0 0 220 131.741"><g stroke="none"><path d="M152.5747 0l-39.5498 13.6042v47.3506c-1.7251-.8136-4.0209-.9426-6.3035-.1817-3.9475 1.3155-6.3468 4.7818-5.3599 7.7424s4.9861 4.293 8.9336 2.9775c3.5237-1.1743 5.8063-4.0623 5.5549-6.7753V22.0924l33.8999-11.6738V41.193c-1.728-.8249-4.036-.9596-6.3299-.1949-3.9475 1.3155-6.3468 4.7818-5.3599 7.7424s4.9861 4.293 8.9336 2.9775c3.3194-1.1065 5.5351-3.7337 5.5728-6.3016h.0085V0zM81.0083.4341v40.4915c-1.76-.84-4.2196-.9144-6.5568-.1347-4.02 1.34-6.4645 4.8703-5.4598 7.8855s5.0784 4.3731 9.0993 3.0331c3.3806-1.1272 5.6942-3.8024 5.7319-6.4184h.0104V13.6174s12.1719 3.5228 16.0083 16.9499c0-15.3453-13.1833-17.8916-18.8333-30.1332zm17.3483 65.9164H65v1.8833h33.4064a7.298 7.298 0 0 1-.0499-1.8833zm57.0431 1.8833v-1.8833h-36.819a8.155 8.155 0 0 1-.5565 1.8833h37.3755zM67.8984 52.2256H65v1.8833h5.5276c-1.0179-.4718-1.9097-1.1074-2.6291-1.8833zm87.5012 1.8833v-1.8833h-3.5491c-.9209.7571-1.9888 1.4003-3.18 1.8833h6.7291zm-18.4557-1.8833h-18.2692v1.8833h20.8625a8.23 8.23 0 0 1-2.5933-1.8833zm-53.9676 0c-.978.7849-2.0676 1.4197-3.2327 1.8833h30.4562v-1.8833H82.9763zm3.6819-14.1249h23.5416v1.8833H86.6582zm-13.0656 0H65v1.8833h4.9437c1.0415-.7769 2.2553-1.42 3.615-1.8739.0113-.0038.0226-.0056.0339-.0094zm45.0821 1.8833h20.549c1.0137-.7133 2.1263-1.2745 3.3024-1.6658l.7496-.2175h-24.6009v1.8833zM93.4853 23.9757h-6.8271v1.8833h8.0936c-.4021-.6705-.8258-1.2976-1.2665-1.8833zm-28.4853 0h13.1833v1.8833H65zm53.6748 1.8833h28.2499v-1.8833h-27.8676l-.3823.1318zm-16.4311 0h7.9561v-1.8833h-8.3789l.4228 1.8833zm-8.3026-14.1249h16.9763c.3206-.3653.7304-.6414 1.1893-.8014l3.1461-1.082H92.0125l1.9285 1.8833zM65 9.8507h13.1833v1.8833H65z" fill="#fce38f"/><path d="M26.28 34.08c.36 0 1.12.16 1.12 1.4v3.16c0 1.24-.76 1.4-1.12 1.4h-13.2c-1.76 0-3.28-.24-4.48-.68a6.55 6.55 0 0 1-3.12-2.24c-.8-1-1.36-2.32-1.72-3.92-.36-1.56-.56-3.48-.56-5.72V8.44c0-1.28.8-1.4 1.16-1.4h3.68c.32 0 1.12.12 1.12 1.4v19.72c0 1.2.04 2.2.2 3 .12.72.36 1.32.68 1.76.28.44.68.72 1.16.88.56.2 1.24.28 2.08.28h13zM60.929 7.04c.32 0 .6.2.72.52.08.32.04.64-.12.92l-12.12 21.4v8.76c0 1.24-.8 1.36-1.12 1.36h-3.68c-.32 0-1.12-.12-1.12-1.36v-8.76l-12-21.4a1.15 1.15 0 0 1-.12-.88c.08-.36.36-.56.72-.56h4.56c.36 0 .84.12 1.16.76l8.72 16 8.8-16.04c.32-.6.8-.72 1.16-.72h4.44zm38.329 31.24c.16.24.2.56.16.96-.08.48-.44.8-.92.8h-4.4c-.36 0-.64-.08-.84-.24-.16-.12-.28-.32-.44-.56l-7.24-12.84h-8.44v12.24c0 1.24-.76 1.4-1.12 1.4h-3.64c-.36 0-1.16-.16-1.16-1.4v-16.8c0-1.24.8-1.36 1.16-1.36h17.4c1.04 0 1.72-.28 2.12-.88.44-.6.64-1.56.64-2.88s-.2-2.28-.64-2.88c-.4-.6-1.08-.88-2.12-.88h-17.4c-.36 0-1.16-.12-1.16-1.36V8.44c0-1.28.8-1.4 1.16-1.4h18.44c2.72 0 4.72.84 5.92 2.56 1.08 1.64 1.68 3.96 1.76 7v.24c-.08 3.08-.68 5.4-1.76 7-1 1.36-2.52 2.2-4.48 2.44zm14.529-31.24c.32 0 1.12.16 1.12 1.4v30.2c0 1.24-.8 1.4-1.12 1.4h-3.68c-.32 0-1.12-.16-1.12-1.4V8.44c0-1.24.8-1.4 1.12-1.4h3.68zm29.809 19.24l6.92 12c.16.2.2.52.16.92-.04.52-.36.84-.92.84h-4.32c-.4 0-.68-.08-.84-.24-.16-.12-.32-.32-.44-.56l-6.24-10.96c-.44-.8-.88-1.32-1.32-1.56-.48-.28-1.2-.4-2.16-.4h-4.04v12.32c0 1.24-.8 1.4-1.12 1.4h-3.68c-.32 0-1.16-.16-1.16-1.4V8.44c0-1.28.84-1.4 1.16-1.4h3.68c.32 0 1.12.12 1.12 1.4V20.4h3.68c.52 0 .96-.04 1.28-.08s.6-.12.84-.24c.2-.12.44-.32.64-.56l.68-1 6.04-10.68c.12-.28.28-.44.44-.56.16-.16.44-.24.88-.24h3.96c.48 0 .8.24.92.68.04.36 0 .68-.12.96l-6.6 11.6-1.08 1.8-.76 1.04c.8.76 1.6 1.84 2.4 3.16zm35.969-5.96c2.08 0 3.68.76 4.76 2.2 1.04 1.44 1.56 3.48 1.56 6.08v3.52c0 2.32-.52 4.2-1.52 5.64-1.04 1.48-2.68 2.24-4.88 2.24h-18.04c-.36 0-1.16-.12-1.16-1.36v-3.2c0-1.24.8-1.36 1.16-1.36h17.08c.68 0 .92-.28 1.08-.52.24-.4.36-.96.36-1.68v-3.44c0-1.96-.8-2.2-1.4-2.2h-12c-1.68 0-3.52-.24-4.76-1.88-1-1.4-1.56-3.64-1.56-6.4v-3.04c0-2.32.52-4.24 1.56-5.68 1.04-1.48 2.64-2.2 4.84-2.2h17.24c.32 0 1.12.12 1.12 1.36v3.2c0 1.24-.8 1.36-1.12 1.36h-16.28c-.68 0-.92.28-1.08.52-.2.4-.32.96-.32 1.68v2.96c0 1.96.76 2.2 1.36 2.2h12z" transform="matrix(1.204259 0 0 1.204259 -3.853629 83.522026)" fill="url(#A)"/></g></svg></g></svg>